<?xml version="1.0" standalone="no"?>
<!DOCTYPE svg PUBLIC "-//W3C//DTD SVG 20010904//EN"
 "http://www.w3.org/TR/2001/REC-SVG-20010904/DTD/svg10.dtd">
<svg version="1.0" xmlns="http://www.w3.org/2000/svg"
 width="453.000000pt" height="222.000000pt" viewBox="0 0 453.000000 222.000000"
 preserveAspectRatio="xMidYMid meet">
<metadata>
Created by potrace 1.15, written by Peter Selinger 2001-2017
</metadata>
<g transform="translate(0.000000,222.000000) scale(0.100000,-0.100000)"
fill="#FF5722" stroke="none">
<path d="M3766 2181 c-3 -4 2 -48 11 -97 25 -137 23 -284 -5 -365 -25 -74
-109 -207 -200 -320 -34 -43 -62 -82 -62 -87 0 -24 22 -21 82 12 298 163 528
174 790 39 135 -69 140 -55 23 64 -100 101 -162 142 -260 173 -61 19 -61 20
-7 52 60 34 102 93 133 185 27 83 22 89 -69 73 -89 -16 -157 -53 -198 -107
l-33 -43 -6 48 c-16 117 -47 192 -128 310 -48 70 -60 81 -71 63z"/>
<path d="M775 1836 c-186 -86 -328 -506 -342 -1016 -6 -219 -6 -217 -95 -347
-62 -89 -151 -175 -212 -204 -56 -26 -101 -79 -91 -108 10 -32 31 -32 95 0 71
36 171 133 230 223 22 33 50 74 62 89 l22 29 23 -89 c62 -236 182 -360 329
-339 115 15 222 115 308 287 l54 108 12 -97 c21 -171 79 -273 165 -292 120
-27 224 67 311 283 l32 78 22 -73 c77 -255 237 -356 412 -261 76 42 150 130
213 256 30 60 57 103 59 96 2 -8 14 -48 26 -89 59 -204 178 -315 316 -296 102
14 209 104 283 237 l38 69 11 -61 c15 -80 46 -143 99 -200 125 -134 307 -115
483 48 95 88 162 177 216 288 67 138 93 270 54 270 -10 0 -25 -31 -46 -90 -56
-163 -130 -285 -229 -373 -195 -174 -379 -122 -404 114 -4 43 -5 106 -2 139
l6 60 55 8 c74 10 241 93 309 153 67 60 101 128 101 204 0 75 -24 119 -80 148
-122 63 -301 -18 -424 -192 -60 -85 -89 -144 -126 -266 -80 -260 -205 -420
-329 -420 -102 0 -179 144 -200 373 l-9 92 38 55 c139 206 270 450 319 597 40
118 64 262 58 344 -11 161 -109 227 -242 165 -188 -87 -329 -509 -342 -1026
-5 -200 -6 -207 -36 -280 -86 -208 -189 -320 -296 -320 -102 0 -179 144 -200
373 l-9 92 38 55 c139 206 270 450 319 597 40 118 64 262 58 344 -11 161 -109
227 -242 165 -140 -65 -244 -288 -311 -669 -22 -128 -27 -188 -30 -382 -4
-254 -7 -271 -77 -410 -50 -100 -80 -140 -118 -155 -26 -11 -34 -10 -57 7 -50
37 -66 106 -65 293 0 91 6 197 12 235 7 39 14 95 18 126 5 52 4 57 -22 77 -35
27 -88 29 -114 3 -20 -20 -35 -77 -52 -195 -19 -141 -122 -374 -203 -463 -177
-195 -332 -75 -365 280 l-9 92 38 55 c139 206 270 450 319 597 40 118 64 262
58 344 -11 161 -109 227 -242 165z m138 -106 c15 -29 17 -49 13 -119 -16 -218
-101 -451 -262 -716 -69 -113 -72 -109 -54 59 35 342 130 703 206 782 42 45
72 43 97 -6z m1220 0 c15 -29 17 -49 13 -119 -16 -218 -101 -451 -262 -716
-69 -113 -72 -109 -54 59 35 342 130 703 206 782 42 45 72 43 97 -6z m710 0
c15 -29 17 -49 13 -119 -16 -218 -101 -451 -262 -716 -69 -113 -72 -109 -54
59 35 342 130 703 206 782 42 45 72 43 97 -6z m724 -715 c15 -31 15 -42 5 -83
-20 -74 -62 -149 -107 -191 -43 -39 -136 -81 -182 -81 -23 0 -25 3 -19 33 13
64 113 251 163 305 42 45 54 52 86 52 33 0 39 -4 54 -35z"/>
<path d="M1286 1605 c-61 -61 -66 -143 -11 -195 62 -58 177 5 186 101 8 87
-23 129 -95 129 -38 0 -51 -5 -80 -35z"/>
</g>
</svg>
