<?xml version="1.0" standalone="no"?>
<!DOCTYPE svg PUBLIC "-//W3C//DTD SVG 20010904//EN"
 "http://www.w3.org/TR/2001/REC-SVG-20010904/DTD/svg10.dtd">
<svg version="1.0" xmlns="http://www.w3.org/2000/svg"
 width="105.000000pt" height="192.000000pt" viewBox="0 0 105.000000 192.000000"
 preserveAspectRatio="xMidYMid meet">
<metadata>
Created by potrace 1.15, written by Peter Selinger 2001-2017
</metadata>
<g transform="translate(0.000000,192.000000) scale(0.100000,-0.100000)"
fill="#000000" stroke="none">
<path d="M100 1903 c-47 -18 -75 -69 -64 -116 4 -21 119 -146 395 -430 l388
-401 -62 -66 c-34 -36 -209 -214 -388 -397 -230 -234 -328 -340 -332 -360 -6
-31 12 -81 35 -100 27 -23 71 -25 104 -6 17 10 221 211 453 447 l421 429 0 50
0 49 -242 251 c-640 661 -652 672 -708 650z"/>
</g>
</svg>
