<?xml version="1.0" standalone="no"?>
<!DOCTYPE svg PUBLIC "-//W3C//DTD SVG 20010904//EN"
 "http://www.w3.org/TR/2001/REC-SVG-20010904/DTD/svg10.dtd">
<svg version="1.0" xmlns="http://www.w3.org/2000/svg"
 width="512.000000pt" height="512.000000pt" viewBox="0 0 512.000000 512.000000"
 preserveAspectRatio="xMidYMid meet">
<g transform="translate(0.000000,512.000000) scale(0.100000,-0.100000)"
fill="#ffffff" stroke="none">
<path d="M2324 5105 c-217 -39 -366 -115 -496 -253 -174 -185 -250 -430 -252
-812 l-1 -165 30 -44 c71 -106 224 -123 306 -34 51 54 57 79 68 280 12 203 30
300 76 397 34 72 107 147 175 181 109 55 329 80 476 55 115 -20 201 -58 265
-117 110 -102 154 -235 169 -512 6 -96 13 -186 17 -200 27 -112 167 -173 278
-122 50 23 68 43 96 106 21 47 22 59 16 210 -11 260 -45 422 -123 580 -123
248 -333 397 -637 451 -101 17 -364 17 -463 -1z"/>
<path d="M750 3528 c-94 -48 -65 75 -411 -1703 -248 -1277 -310 -1610 -306
-1651 7 -67 40 -130 80 -154 32 -20 67 -20 2447 -20 2380 0 2415 0 2447 20 40
24 73 87 80 154 4 41 -58 374 -306 1651 -346 1778 -317 1655 -411 1703 l-44
22 -1766 0 -1766 0 -44 -22z m1041 -216 c62 -30 117 -86 146 -150 21 -45 24
-65 21 -120 -15 -253 -305 -366 -485 -190 -144 141 -98 375 91 465 65 31 158
29 227 -5z m1765 4 c66 -31 120 -86 151 -153 107 -233 -150 -482 -380 -369
-99 48 -158 137 -165 248 -4 56 0 75 21 120 29 60 47 82 98 121 80 61 188 74
275 33z"/>
</g>
</svg>
