<?xml version="1.0" standalone="no"?>
<!DOCTYPE svg PUBLIC "-//W3C//DTD SVG 20010904//EN"
 "http://www.w3.org/TR/2001/REC-SVG-20010904/DTD/svg10.dtd">
<svg version="1.0" xmlns="http://www.w3.org/2000/svg"
 width="337.000000pt" height="262.000000pt" viewBox="0 0 337.000000 262.000000"
 preserveAspectRatio="xMidYMid meet">
<metadata>
Created by potrace 1.15, written by Peter Selinger 2001-2017
</metadata>
<g transform="translate(0.000000,262.000000) scale(0.100000,-0.100000)"
fill="#000000" stroke="none">
<path d="M693 2579 c-296 -45 -546 -268 -623 -558 -36 -135 -30 -319 16 -480
49 -172 185 -413 350 -621 99 -124 417 -438 584 -576 176 -146 383 -298 433
-319 32 -13 41 -13 70 -1 36 14 156 98 280 194 l77 60 -39 41 c-22 23 -43 41
-48 41 -5 0 -24 -13 -43 -29 -19 -15 -86 -65 -148 -109 l-113 -81 -72 51 c-83
59 -112 82 -257 197 -508 407 -853 836 -956 1186 -35 121 -43 281 -19 389 42
189 166 348 337 430 109 52 169 66 281 66 145 0 267 -43 387 -133 30 -23 103
-90 163 -149 85 -85 114 -108 136 -108 22 0 52 24 147 118 203 199 320 261
514 270 128 5 199 -10 319 -70 144 -72 249 -195 309 -360 24 -66 27 -86 27
-213 0 -99 -5 -157 -17 -198 l-16 -58 49 -24 c26 -14 51 -25 54 -25 23 0 56
178 56 302 2 363 -230 666 -576 753 -89 23 -255 23 -347 1 -147 -34 -260 -103
-416 -251 l-102 -97 -102 97 c-116 109 -191 164 -282 205 -120 54 -288 78
-413 59z"/>
<path d="M2743 888 l-523 -523 -283 283 c-296 296 -311 307 -351 266 -42 -41
-32 -53 309 -394 l325 -325 564 564 c311 311 567 572 569 582 9 32 -16 64 -52
67 -33 3 -54 -16 -558 -520z"/>
</g>
</svg>
