<?xml version="1.0" standalone="no"?>
<!DOCTYPE svg PUBLIC "-//W3C//DTD SVG 20010904//EN"
 "http://www.w3.org/TR/2001/REC-SVG-20010904/DTD/svg10.dtd">
<svg version="1.0" xmlns="http://www.w3.org/2000/svg"
 width="294.000000pt" height="261.000000pt" viewBox="0 0 294.000000 261.000000"
 preserveAspectRatio="xMidYMid meet">
<metadata>
</metadata>
<g transform="translate(0.000000,261.000000) scale(0.100000,-0.100000)"
fill="#000000" stroke="none">
<path d="M680 2579 c-143 -22 -284 -89 -392 -189 -232 -212 -307 -515 -212
-849 49 -172 185 -413 350 -621 93 -117 413 -435 564 -560 171 -142 396 -309
448 -332 l44 -20 47 24 c26 12 113 72 193 133 l146 110 -32 36 c-43 52 -54 54
-95 21 -20 -16 -87 -65 -148 -110 l-113 -82 -71 51 c-634 452 -1096 978 -1215
1384 -35 121 -43 281 -19 389 42 190 165 347 337 430 109 52 169 66 281 66
144 0 266 -42 385 -132 29 -22 103 -89 164 -149 86 -85 116 -109 137 -109 22
0 54 26 147 118 203 200 320 261 514 270 128 5 199 -10 319 -70 144 -72 249
-195 309 -360 24 -66 27 -86 27 -213 0 -99 -5 -157 -17 -198 l-16 -58 50 -25
c28 -14 54 -22 59 -17 14 14 39 124 48 210 40 393 -201 745 -574 838 -89 22
-256 23 -347 1 -147 -34 -260 -103 -416 -251 l-102 -97 -102 97 c-114 108
-190 164 -282 205 -121 55 -288 78 -416 59z"/>
<path d="M2303 1550 c-13 -5 -24 -11 -25 -12 -1 -2 -5 -118 -8 -258 l-5 -255
-225 -2 c-124 -1 -235 -2 -247 -2 -50 -2 -70 -64 -33 -101 19 -19 33 -20 265
-20 l245 0 0 -245 c0 -232 1 -246 20 -265 25 -25 62 -26 83 -2 15 16 17 50 17
265 l0 247 244 0 c220 0 246 2 266 18 26 21 30 66 7 89 -12 12 -56 15 -263 16
l-249 2 -2 250 c-3 241 -4 251 -24 268 -23 19 -33 20 -66 7z"/>
</g>
</svg>
